<?xml version="1.0" encoding="UTF-8" standalone="no"?>
<svg
   version="1.1"
   width="108.00996"
   height="111.10017"
   id="svg6"
   xml:space="preserve"
   xmlns="http://www.w3.org/2000/svg"
   xmlns:svg="http://www.w3.org/2000/svg"><defs
     id="defs6" /><g
     id="Layer1000"
     transform="matrix(1.3333333,0,0,1.3333333,-125.04272,-477.25855)"><path
       d="M 93.7267,345.3732 H 501.5492 V 457.2995 H 93.7267 Z"
       style="fill:#d7b369;fill-rule:evenodd"
       id="path1" /><path
       d="m 120.3678,435.7375 v -21.6114 h 9.0675 c 0.0493,0 0.0984,0 0.1641,0 h 0.1803 0.328 c 11.5435,0 20.9392,9.3955 20.9392,20.939 v 0.6724 h 1.984 v -0.6724 c 0,-5.4765 -1.984,-10.7892 -5.5587,-14.9377 -2.9186,-3.3942 -6.7556,-5.8374 -10.986,-7.0671 4.2633,-1.3445 8.1,-3.886 11.0024,-7.346 3.5745,-4.2468 5.5423,-9.6414 5.5423,-15.1673 0,-13.0193 -10.5925,-23.5953 -23.5956,-23.5953 h -11.0514 v 68.7858 z m 9.0675,-22.2673 v 0 c 0.1148,0 0.2296,0 0.3444,0 -0.1148,0 -0.2296,0 -0.3444,0 z m 0,-1.3116 h -0.5411 v -43.2229 h 0.5411 c 11.9208,0 21.6116,9.6908 21.6116,21.6113 0,11.9044 -9.6908,21.6116 -21.6116,21.6116 z m 0,-43.8789 v 0 c 12.2817,0 22.2673,9.9859 22.2673,22.2673 0,-12.2814 -9.9856,-22.2673 -22.2673,-22.2673 z m -9.0675,43.8789 v -43.2065 h 6.5424 v 43.2065 z m 23.8743,6.5914 c -0.2625,-0.2293 -0.5247,-0.4589 -0.8036,-0.6721 -0.2787,-0.2131 -0.5573,-0.4099 -0.8363,-0.623 -3.5254,-2.509 -7.8378,-3.9847 -12.4945,-3.9847 v 0 c 4.6567,0 8.9691,1.4757 12.4945,3.9847 0.279,0.2131 0.5576,0.4099 0.8363,0.623 0.2789,0.2132 0.5411,0.4428 0.8036,0.6721 0.2622,0.2132 0.5082,0.4592 0.7704,0.6888 -0.2622,-0.2296 -0.5082,-0.4756 -0.7704,-0.6888 z m 3.7712,4.2469 c -0.4918,-0.7214 -1.0165,-1.41 -1.5741,-2.0495 -0.2296,-0.2625 -0.4592,-0.5247 -0.705,-0.7707 0.2458,0.246 0.4754,0.5082 0.705,0.7707 0.5576,0.6395 1.0823,1.3281 1.5741,2.0495 0.1967,0.2954 0.3773,0.574 0.5576,0.8855 -0.1803,-0.3115 -0.3609,-0.5901 -0.5576,-0.8855 z m 69.8519,12.7406 v -1.984 h -32.6631 v -27.1536 h 32.6631 v -1.984 h -32.6631 v -6.5426 h 32.6631 v -1.984 h -32.6631 v -27.1536 h 32.6631 v -1.984 h -34.647 v 68.7858 z m 34.5325,0 v -29.3179 h 32.6631 v -1.9678 h -32.6631 v -6.5588 h 32.6631 v -1.9676 h -32.6631 v -26.9897 h 32.6631 v -1.984 h -34.6471 v 68.7858 z m 80.0671,0 c 9.5596,0 17.3319,-7.7723 17.3319,-17.3316 v -34.1388 c 0,-9.5431 -7.7723,-17.3154 -17.3319,-17.3154 -9.5431,0 -17.3151,7.7723 -17.3151,17.3154 v 34.1388 c 0,9.5593 7.772,17.3316 17.3151,17.3316 z m 0,-66.8018 c 8.4612,0 15.3479,6.8867 15.3479,15.3314 v 34.1388 c 0,8.4608 -6.8867,15.3476 -15.3479,15.3476 -8.4608,0 -15.3312,-6.8868 -15.3312,-15.3476 v -34.1388 c 0,-8.4447 6.8704,-15.3314 15.3312,-15.3314 z m -12.3304,5.1652 c 0.2458,-0.2953 0.4918,-0.5904 0.7543,-0.8526 -0.2625,0.2622 -0.5085,0.5573 -0.7543,0.8526 z m 23.9068,-0.8526 c 0.279,0.2622 0.5247,0.5573 0.7708,0.8526 -0.2461,-0.2953 -0.4918,-0.5904 -0.7708,-0.8526 z m 2.6728,3.7548 c 0.1803,0.3444 0.3444,0.6888 0.4918,1.0493 -0.1474,-0.3605 -0.3115,-0.7049 -0.4918,-1.0493 z m -1.1971,-1.984 c -0.1474,-0.2132 -0.295,-0.4099 -0.4589,-0.6231 0.1639,0.2132 0.3115,0.4099 0.4589,0.6231 0.3773,0.5247 0.7217,1.0658 1.0168,1.6395 -0.2951,-0.5737 -0.6395,-1.1148 -1.0168,-1.6395 z m -13.0521,-6.7394 c -2.4758,0 -4.8206,0.5576 -6.9194,1.5744 2.0988,-1.0168 4.4436,-1.5744 6.9194,-1.5744 2.4925,0 4.8373,0.5576 6.9361,1.5744 -2.0988,-1.0168 -4.4436,-1.5744 -6.9361,-1.5744 z m -13.0357,6.7394 c -0.377,0.5247 -0.7214,1.0658 -1.0329,1.6395 0.3115,-0.5737 0.6559,-1.1148 1.0329,-1.6395 0.1477,-0.2132 0.2954,-0.4099 0.4592,-0.6231 -0.1638,0.2132 -0.3115,0.4099 -0.4592,0.6231 z m -2.6399,6.0341 c -0.0819,0.3934 -0.1474,0.7872 -0.1967,1.1806 -0.0819,0.6721 -0.1312,1.3445 -0.1312,2.0333 0,-0.6888 0.0493,-1.3612 0.1312,-2.0333 0.0493,-0.3934 0.1148,-0.7872 0.1967,-1.1806 0.1148,-0.5247 0.2461,-1.0329 0.3938,-1.525 -0.1477,0.4921 -0.279,1.0003 -0.3938,1.525 z m 29.2689,46.9942 c -0.3115,0.4427 -0.6395,0.8526 -1.0001,1.2625 -0.1641,0.1967 -0.3444,0.3935 -0.5247,0.5902 0.1803,-0.1967 0.3606,-0.3935 0.5247,-0.5902 0.3606,-0.4099 0.6886,-0.8198 1.0001,-1.2625 0.1477,-0.2132 0.2951,-0.4428 0.4428,-0.656 -0.1477,0.2132 -0.2951,0.4428 -0.4428,0.656 z m 1.9185,-3.5419 c -0.0984,0.2625 -0.2132,0.5082 -0.3116,0.7543 -0.1148,0.246 -0.2296,0.4918 -0.3608,0.7214 0.1312,-0.2296 0.246,-0.4754 0.3608,-0.7214 0.0984,-0.2461 0.2132,-0.4918 0.3116,-0.7543 0.246,-0.6231 0.4592,-1.279 0.623,-1.9349 -0.1638,0.6559 -0.377,1.3118 -0.623,1.9349 z m 0.7214,-2.3448 c 0.2954,-1.1968 0.4428,-2.4597 0.4428,-3.7548 0,1.2951 -0.1474,2.558 -0.4428,3.7548 z m -31.4167,3.0991 c -0.1148,-0.2461 -0.2131,-0.4918 -0.3115,-0.7543 -0.2461,-0.6231 -0.4592,-1.279 -0.6395,-1.9349 0.1803,0.6559 0.3934,1.3118 0.6395,1.9349 0.0984,0.2625 0.1967,0.5082 0.3115,0.7543 0.1148,0.246 0.2296,0.4918 0.3606,0.7214 -0.131,-0.2296 -0.2458,-0.4754 -0.3606,-0.7214 z m 0.5412,1.0822 c 0.1309,0.2458 0.2622,0.4754 0.4098,0.705 -0.1476,-0.2296 -0.2789,-0.4592 -0.4098,-0.705 z m 64.1454,9.3955 v -21.6114 h 9.0675 c 0.0493,0 0.0984,0 0.1641,0 h 0.1803 0.328 c 11.5435,0 20.9392,9.3955 20.9392,20.939 v 0.6724 h 1.984 v -0.6724 c 0,-5.4765 -1.984,-10.7892 -5.5587,-14.9377 -2.9186,-3.3942 -6.7556,-5.8374 -10.986,-7.0671 4.2633,-1.3445 8.1,-3.886 11.0024,-7.346 3.5745,-4.2468 5.5423,-9.6414 5.5423,-15.1673 0,-13.0193 -10.5925,-23.5953 -23.5956,-23.5953 H 379.984 v 68.7858 z m 9.0675,-22.2673 v 0 c 0.1148,0 0.2296,0 0.3444,0 -0.1148,0 -0.2296,0 -0.3444,0 z m 0,-1.3116 h -0.5411 v -43.2229 h 0.5411 c 11.9208,0 21.6116,9.6908 21.6116,21.6113 0,11.9044 -9.6908,21.6116 -21.6116,21.6116 z m 0,-43.8789 v 0 c 12.2817,0 22.2673,9.9859 22.2673,22.2673 0,-12.2814 -9.9856,-22.2673 -22.2673,-22.2673 z m -9.0675,43.8789 v -43.2065 h 6.5424 v 43.2065 z m 23.8743,6.5914 c -0.2625,-0.2293 -0.5247,-0.4589 -0.8036,-0.6721 -0.2787,-0.2131 -0.5573,-0.4099 -0.8363,-0.623 -3.5254,-2.509 -7.8378,-3.9847 -12.4945,-3.9847 v 0 c 4.6567,0 8.9691,1.4757 12.4945,3.9847 0.279,0.2131 0.5576,0.4099 0.8363,0.623 0.2789,0.2132 0.5411,0.4428 0.8036,0.6721 0.2622,0.2132 0.5082,0.4592 0.7704,0.6888 -0.2622,-0.2296 -0.5082,-0.4756 -0.7704,-0.6888 z m 3.7712,4.2469 c -0.4918,-0.7214 -1.0165,-1.41 -1.5741,-2.0495 -0.2296,-0.2625 -0.4592,-0.5247 -0.705,-0.7707 0.2458,0.246 0.4754,0.5082 0.705,0.7707 0.5576,0.6395 1.0823,1.3281 1.5741,2.0495 0.1967,0.2954 0.3773,0.574 0.5576,0.8855 -0.1803,-0.3115 -0.3609,-0.5901 -0.5576,-0.8855 z m 36.5165,12.7406 h 0.6723 V 369.985 l 14.4131,14.4295 0.4753,0.4592 15.7907,15.8069 v 35.0569 h 1.984 V 366.9352 H 477.76 l -15.6101,15.6102 -15.4131,-15.4134 -0.1971,-0.1968 h -1.7214 v 68.8023 z m 16.02,-51.323 -0.4593,-0.4754 z m 1.4102,-0.4754 13.9212,-13.9212 v 27.8586 z"
       style="fill:#ffffff;fill-rule:evenodd;stroke:#ffffff;stroke-width:0.216;stroke-linecap:butt;stroke-linejoin:miter;stroke-dasharray:none"
       id="path2" /><path
       d="m 118.2521,482.8195 v 5.7121 h 2.1804 c 1.2356,0 2.1492,-0.2347 2.7337,-0.7035 0.5879,-0.4692 0.8819,-1.1971 0.8819,-2.1875 0,-0.9241 -0.2869,-1.624 -0.8646,-2.1036 -0.5774,-0.4794 -1.421,-0.7175 -2.5339,-0.7175 z m -1.1549,-0.966 h 3.4895 c 1.5573,0 2.7334,0.3257 3.528,0.9731 0.7945,0.6508 1.1934,1.6064 1.1934,2.8698 0,1.1622 -0.3816,2.0897 -1.1481,2.7825 -0.7628,0.6931 -1.7883,1.0397 -3.073,1.0397 h -2.8349 v 6.6779 h -1.1549 z m 25.0521,14.343 v -14.343 h 1.239 v 14.343 z m 19.1931,0 v -14.343 h 1.197 v 13.377 h 6.7618 v 0.966 z m 25.829,-5.9641 h 5.5091 l -2.7476,-6.5134 z m -3.7344,5.9641 6.2581,-14.4689 h 0.4617 l 6.2581,14.4689 h -1.211 l -2.1209,-4.998 h -6.3105 l -2.114,4.998 z m 30.4316,0 v -13.314 h -5.3339 v -1.029 h 11.9069 v 1.029 h -5.3339 v 13.314 z m 22.847,0 v -14.343 h 7.7734 v 0.9241 h -6.6186 v 5.6908 h 6.4052 v 0.9241 h -6.4052 v 5.838 h 6.783 v 0.966 z m 31.5618,-12.3024 c -0.595,-0.4025 -1.1585,-0.7001 -1.6974,-0.8926 -0.5355,-0.1925 -1.0675,-0.2869 -1.5925,-0.2869 -0.868,0 -1.5786,0.2554 -2.1351,0.7628 -0.553,0.5111 -0.8294,1.1518 -0.8294,1.9217 0,0.6298 0.1783,1.1409 0.5318,1.54 0.3572,0.3955 1.12,0.8433 2.2961,1.3405 0.07,0.0278 0.1715,0.07 0.3081,0.1259 1.33,0.5391 2.2153,1.0604 2.66,1.5576 0.3079,0.3359 0.5423,0.7175 0.7033,1.148 0.161,0.434 0.2415,0.889 0.2415,1.3754 0,1.1446 -0.3988,2.0826 -1.1934,2.8174 -0.7945,0.735 -1.813,1.1027 -3.0484,1.1027 -0.623,0 -1.239,-0.1052 -1.8515,-0.3187 -0.6126,-0.2134 -1.2286,-0.532 -1.8516,-0.9589 v -1.393 c 0.6791,0.525 1.3195,0.917 1.9216,1.1724 0.6055,0.2557 1.1934,0.385 1.7603,0.385 0.9346,0 1.6767,-0.2554 2.226,-0.7699 0.546,-0.5111 0.819,-1.2076 0.819,-2.0894 0,-0.6511 -0.1854,-1.1832 -0.5599,-1.5962 -0.371,-0.4127 -1.218,-0.8958 -2.5444,-1.4488 -1.3722,-0.5669 -2.3102,-1.1409 -2.8176,-1.7186 -0.504,-0.5775 -0.756,-1.3159 -0.756,-2.2119 0,-1.1132 0.385,-2.0231 1.1514,-2.7335 0.7702,-0.7069 1.7745,-1.0604 3.0101,-1.0604 0.5599,0 1.1061,0.0768 1.6416,0.2307 0.5318,0.1542 1.0675,0.3921 1.6064,0.7178 z"
       style="fill:#d7b369;fill-rule:evenodd;stroke:#d7b369;stroke-width:0.216;stroke-linecap:butt;stroke-linejoin:miter;stroke-dasharray:none"
       id="path3" /><path
       d="m 334.398,483.9415 c -0.5949,-0.4025 -1.1585,-0.7002 -1.6973,-0.8926 -0.5355,-0.1925 -1.0676,-0.2869 -1.5925,-0.2869 -0.868,0 -1.5787,0.2554 -2.1351,0.7628 -0.553,0.5111 -0.8294,1.1517 -0.8294,1.9216 0,0.6299 0.1783,1.1409 0.5318,1.5401 0.3571,0.3954 1.1199,0.8433 2.296,1.3405 0.07,0.0277 0.1715,0.07 0.3082,0.1258 1.33,0.5392 2.2152,1.0605 2.66,1.5577 0.3078,0.3359 0.5423,0.7174 0.7033,1.148 0.161,0.434 0.2415,0.8889 0.2415,1.3754 0,1.1446 -0.3989,2.0826 -1.1934,2.8173 -0.7946,0.735 -1.8131,1.1027 -3.0484,1.1027 -0.623,0 -1.239,-0.1052 -1.8516,-0.3186 -0.6125,-0.2135 -1.2285,-0.5321 -1.8516,-0.959 v -1.3929 c 0.6792,0.5249 1.3196,0.917 1.9216,1.1724 0.6055,0.2557 1.1934,0.3849 1.7603,0.3849 0.9346,0 1.6767,-0.2554 2.2261,-0.7699 0.5459,-0.5111 0.8189,-1.2075 0.8189,-2.0894 0,-0.6511 -0.1854,-1.1832 -0.5598,-1.5962 -0.3711,-0.4127 -1.2181,-0.8957 -2.5444,-1.4488 -1.3722,-0.5669 -2.3102,-1.1409 -2.8176,-1.7186 -0.504,-0.5774 -0.756,-1.3158 -0.756,-2.2119 0,-1.1131 0.3849,-2.0231 1.1514,-2.7334 0.7702,-0.707 1.7745,-1.0605 3.0101,-1.0605 0.5599,0 1.1061,0.0769 1.6416,0.2308 0.5317,0.1542 1.0675,0.392 1.6063,0.7177 z m 22.8011,12.3023 v -13.314 h -5.334 v -1.029 h 11.907 v 1.029 h -5.334 v 13.314 z m 25.5903,-5.9465 c 0,1.5367 0.4303,2.7581 1.2915,3.6647 0.8609,0.9065 2.0126,1.3577 3.4546,1.3577 1.4419,0 2.5934,-0.4512 3.4543,-1.3577 0.8611,-0.9066 1.2914,-2.128 1.2914,-3.6647 v -8.3965 h 1.1971 v 8.3336 c 0,1.9284 -0.5355,3.4546 -1.6101,4.585 -1.0743,1.1305 -2.52,1.6974 -4.3364,1.6974 -1.8131,0 -3.2514,-0.5635 -4.3189,-1.6906 -1.0675,-1.1267 -1.5996,-2.6563 -1.5996,-4.5918 v -8.3336 h 1.1761 z m 34.7463,-7.3675 h -3.4685 v 12.306 h 3.4685 c 0.9416,0 1.7535,-0.0771 2.436,-0.2344 0.6789,-0.1576 1.2671,-0.4062 1.757,-0.7384 0.8016,-0.5358 1.4281,-1.26 1.883,-2.177 0.455,-0.9136 0.6826,-1.9145 0.6826,-3.003 0,-1.0885 -0.2276,-2.0897 -0.6826,-3.0101 -0.4549,-0.9205 -1.0814,-1.645 -1.883,-2.1805 -0.4899,-0.3325 -1.0781,-0.5774 -1.757,-0.7316 -0.6825,-0.1539 -1.4944,-0.231 -2.436,-0.231 z m 0.2871,-1.029 c 1.0919,0 2.0231,0.1052 2.793,0.3115 0.7699,0.2101 1.4629,0.5392 2.0789,0.9905 0.8994,0.6687 1.603,1.5191 2.107,2.548 0.5006,1.029 0.7526,2.1351 0.7526,3.3146 0,1.1761 -0.252,2.2785 -0.7526,3.3075 -0.504,1.0289 -1.2076,1.8793 -2.107,2.548 -0.616,0.4584 -1.3158,0.7946 -2.0928,1.0043 -0.7807,0.2138 -1.7082,0.3186 -2.7791,0.3186 h -4.9734 v -14.343 z m 26.581,14.343 v -14.343 h 1.2391 v 14.343 z m 21.2434,-7.1784 c 0,0.8436 0.1577,1.6591 0.4763,2.4466 0.3183,0.7908 0.7665,1.4873 1.3473,2.0894 0.5811,0.5879 1.2637,1.0465 2.0406,1.372 0.7804,0.3291 1.5818,0.4935 2.4115,0.4935 0.8538,0 1.6588,-0.1576 2.4185,-0.476 0.7594,-0.3186 1.4349,-0.7806 2.0299,-1.3895 0.595,-0.6021 1.0465,-1.2952 1.3615,-2.0721 0.3149,-0.7804 0.4725,-1.5993 0.4725,-2.4639 0,-0.8609 -0.1539,-1.673 -0.4655,-2.4395 -0.3115,-0.7665 -0.7664,-1.4525 -1.3685,-2.0614 -0.595,-0.602 -1.2776,-1.0675 -2.0475,-1.3932 -0.7665,-0.3288 -1.5681,-0.4935 -2.4009,-0.4935 -0.8297,0 -1.624,0.161 -2.3905,0.4867 -0.7665,0.3254 -1.4525,0.7909 -2.0616,1.4 -0.5879,0.5879 -1.0361,1.2705 -1.351,2.0475 -0.3149,0.7733 -0.4726,1.5925 -0.4726,2.4534 z m -1.26,-0.0561 c 0,-0.9624 0.1925,-1.8933 0.5741,-2.793 0.3849,-0.8994 0.9275,-1.694 1.631,-2.3834 0.7246,-0.7035 1.5435,-1.239 2.4571,-1.6101 0.9133,-0.3673 1.8723,-0.553 2.8769,-0.553 1.0185,0 1.9845,0.1857 2.8981,0.553 0.9133,0.3711 1.7255,0.9066 2.4358,1.6101 0.7246,0.7104 1.2742,1.5086 1.645,2.3939 0.3747,0.8855 0.5601,1.8306 0.5601,2.8352 0,0.7523 -0.1086,1.4802 -0.322,2.1838 -0.2172,0.7036 -0.5355,1.3615 -0.959,1.9706 -0.714,1.0429 -1.6135,1.8513 -2.7057,2.422 -1.0882,0.5706 -2.2748,0.8574 -3.5523,0.8574 -1.0114,0 -1.9809,-0.189 -2.9084,-0.5635 -0.9275,-0.3778 -1.7362,-0.9099 -2.4256,-1.5996 -0.7174,-0.7174 -1.2634,-1.533 -1.6415,-2.4395 -0.3745,-0.9099 -0.5636,-1.8689 -0.5636,-2.8839 z"
       style="fill:#d7b369;fill-rule:evenodd;stroke:#d7b369;stroke-width:0.216;stroke-linecap:butt;stroke-linejoin:miter;stroke-dasharray:none"
       id="path4" /><path
       d="m 444.8645,435.8364 h 20.9633 v -2.3794 h -20.9633 z"
       style="fill:#ffffff;fill-rule:evenodd"
       id="path5" /><path
       d="m 471.6057,430.8724 c 1.3708,0 2.482,1.1112 2.482,2.482 0,1.3708 -1.1112,2.482 -2.482,2.482 -1.3709,0 -2.482,-1.1112 -2.482,-2.482 0,-1.3708 1.1111,-2.482 2.482,-2.482 z"
       style="fill:#ffffff;fill-rule:evenodd"
       id="path6" /><rect
       style="fill:#ff0032;fill-opacity:0;stroke:#000000;stroke-width:0.816375"
       id="rect2"
       width="80.191093"
       height="82.508751"
       x="94.190231"
       y="358.35211" /></g></svg>
